<svg version="1.2" baseProfile="tiny"
	 xmlns="http://www.w3.org/2000/svg" xmlns:xlink="http://www.w3.org/1999/xlink" viewBox="0 0 16 16">
    <g>
        <rect fill="#FCD8A8" width="1" height="2"/>
        <rect y="8" fill="#FCD8A8" width="1" height="2"/>
        <rect x="1" y="7" fill="#FCD8A8" width="1" height="2"/>
        <rect x="2" y="6" fill="#FCD8A8" width="1" height="2"/>
        <rect x="3" y="5" fill="#FCD8A8" width="1" height="2"/>
        <rect x="4" y="4" fill="#FCD8A8" width="1" height="2"/>
        <rect y="4" fill="#0070EC" width="1" height="2"/>
        <rect x="1" y="3" fill="#0070EC" width="1" height="2"/>
        <rect x="2" y="2" fill="#0070EC" width="1" height="2"/>
        <rect x="3" y="1" fill="#0070EC" width="1" height="2"/>
        <rect x="4" fill="#0070EC" width="1" height="2"/>
        <rect y="6" width="1" height="2"/>
        <rect x="1" y="5" width="1" height="2"/>
        <rect x="2" y="4" width="1" height="2"/>
        <rect x="3" y="3" width="1" height="2"/>
        <rect x="4" y="2" width="1" height="2"/>
        <rect x="5" y="1" width="1" height="2"/>
        <rect x="6" width="1" height="2"/>
        <rect y="14" width="1" height="2"/>
        <rect x="1" y="13" width="1" height="2"/>
        <rect x="2" y="12" width="1" height="2"/>
        <rect x="3" y="11" width="1" height="2"/>
        <rect x="4" y="10" width="1" height="2"/>
        <rect x="5" y="9" width="1" height="2"/>
        <rect x="6" y="8" width="1" height="2"/>
        <rect x="7" y="7" width="1" height="2"/>
        <rect x="8" y="6" width="1" height="2"/>
        <rect x="9" y="5" width="1" height="2"/>
        <rect x="10" y="4" width="1" height="2"/>
        <rect x="11" y="3" width="1" height="2"/>
        <rect x="12" y="2" width="1" height="2"/>
        <rect x="13" y="1" width="1" height="2"/>
        <rect x="14" width="1" height="2"/>
        <rect x="8" y="14" width="1" height="2"/>
        <rect x="9" y="13" width="1" height="2"/>
        <rect x="10" y="12" width="1" height="2"/>
        <rect x="11" y="11" width="1" height="2"/>
        <rect x="12" y="10" width="1" height="2"/>
        <rect x="13" y="9" width="1" height="2"/>
        <rect x="14" y="8" width="1" height="2"/>
        <rect x="15" y="7" width="1" height="2"/>
        <rect y="10" fill="#80D010" width="1" height="2"/>
        <rect x="1" y="9" fill="#80D010" width="1" height="2"/>
        <rect x="2" y="8" fill="#80D010" width="1" height="2"/>
        <rect x="3" y="7" fill="#80D010" width="1" height="2"/>
        <rect x="4" y="6" fill="#80D010" width="1" height="2"/>
        <rect x="5" y="5" fill="#80D010" width="1" height="2"/>
        <rect x="6" y="4" fill="#80D010" width="1" height="2"/>
        <rect x="7" y="3" fill="#80D010" width="1" height="2"/>
        <rect x="8" y="2" fill="#80D010" width="1" height="2"/>
        <rect x="9" y="1" fill="#80D010" width="1" height="2"/>
        <rect x="10" fill="#80D010" width="1" height="2"/>
        <rect x="4" y="14" fill="#80D010" width="1" height="2"/>
        <rect x="5" y="13" fill="#80D010" width="1" height="2"/>
        <rect x="6" y="12" fill="#80D010" width="1" height="2"/>
        <rect x="7" y="11" fill="#80D010" width="1" height="2"/>
        <rect x="8" y="10" fill="#80D010" width="1" height="2"/>
        <rect x="9" y="9" fill="#80D010" width="1" height="2"/>
        <rect x="10" y="8" fill="#80D010" width="1" height="2"/>
        <rect y="12" fill="#0070EC" width="1" height="2"/>
        <rect x="1" y="11" fill="#0070EC" width="1" height="2"/>
        <rect x="2" y="10" fill="#0070EC" width="1" height="2"/>
        <rect x="3" y="9" fill="#0070EC" width="1" height="2"/>
        <rect x="4" y="8" fill="#0070EC" width="1" height="2"/>
        <rect x="5" y="7" fill="#0070EC" width="1" height="2"/>
        <rect x="6" y="6" fill="#0070EC" width="1" height="2"/>
        <rect x="7" y="5" fill="#0070EC" width="1" height="2"/>
        <rect x="8" y="4" fill="#0070EC" width="1" height="2"/>
        <rect x="9" y="3" fill="#0070EC" width="1" height="2"/>
        <rect x="10" y="2" fill="#0070EC" width="1" height="2"/>
        <rect x="11" y="1" fill="#0070EC" width="1" height="2"/>
        <rect x="12" fill="#0070EC" width="1" height="2"/>
        <rect x="5" y="3" fill="#FCD8A8" width="1" height="2"/>
        <rect x="10" y="14" fill="#FCD8A8" width="1" height="2"/>
        <rect x="11" y="13" fill="#FCD8A8" width="1" height="2"/>
        <rect x="12" y="12" fill="#FCD8A8" width="1" height="2"/>
        <rect x="13" y="11" fill="#FCD8A8" width="1" height="2"/>
        <rect x="14" y="10" fill="#FCD8A8" width="1" height="2"/>
        <rect x="15" y="9" fill="#FCD8A8" width="1" height="2"/>
        <rect x="6" y="2" fill="#FCD8A8" width="1" height="2"/>
        <rect x="7" y="1" fill="#FCD8A8" width="1" height="2"/>
        <rect x="1.021" fill="#FCD8A8" width="1" height="1"/>
        <rect x="2" fill="#80D010" width="1" height="2"/>
        <rect x="1" y="1" fill="#80D010" width="1" height="2"/>
        <rect y="2" fill="#80D010" width="1" height="2"/>
        <rect x="14" y="12" fill="#80D010" width="1" height="2"/>
        <rect x="15" y="11" fill="#80D010" width="1" height="2"/>
        <rect x="13" y="13" fill="#80D010" width="1" height="2"/>
        <rect x="12" y="14" fill="#80D010" width="1" height="2"/>
        <rect x="13" y="5" fill="#80D010" width="1" height="2"/>
        <rect x="14" y="4" fill="#80D010" width="1" height="2"/>
        <rect x="15" y="3" fill="#80D010" width="1" height="2"/>
        <rect x="12" y="6" fill="#80D010" width="1" height="2"/>
        <rect x="11" y="7" fill="#80D010" width="1" height="2"/>
        <rect x="3" fill="#80D010" width="1" height="1"/>
        <rect x="11" fill="#80D010" width="1" height="1"/>
        <rect x="8" fill="#FCD8A8" width="1" height="2"/>
        <rect x="9.01" fill="#FCD8A8" width="0.99" height="1"/>
        <rect x="14" y="14" fill="#0070EC" width="1" height="2"/>
        <rect x="15" y="13" fill="#0070EC" width="1" height="2"/>
        <rect x="8" y="12" fill="#0070EC" width="1" height="2"/>
        <rect x="7" y="13" fill="#0070EC" width="1" height="2"/>
        <rect x="6" y="14" fill="#0070EC" width="1" height="2"/>
        <rect x="9" y="11" fill="#0070EC" width="1" height="2"/>
        <rect x="10" y="10" fill="#0070EC" width="1" height="2"/>
        <rect x="11" y="9" fill="#0070EC" width="1" height="2"/>
        <rect x="12" y="8" fill="#0070EC" width="1" height="2"/>
        <rect x="13" y="7" fill="#0070EC" width="1" height="2"/>
        <rect x="14" y="6" fill="#0070EC" width="1" height="2"/>
        <rect x="15" y="5" fill="#0070EC" width="1" height="2"/>
        <rect x="6" y="10" fill="#FCD8A8" width="1" height="2"/>
        <rect x="7" y="9" fill="#FCD8A8" width="1" height="2"/>
        <rect x="8" y="8" fill="#FCD8A8" width="1" height="2"/>
        <rect x="9" y="7" fill="#FCD8A8" width="1" height="2"/>
        <rect x="10" y="6" fill="#FCD8A8" width="1" height="2"/>
        <rect x="11" y="5" fill="#FCD8A8" width="1" height="2"/>
        <rect x="12" y="4" fill="#FCD8A8" width="1" height="2"/>
        <rect x="13" y="3" fill="#FCD8A8" width="1" height="2"/>
        <rect x="15" y="1" fill="#FCD8A8" width="1" height="2"/>
        <rect x="14" y="2" fill="#FCD8A8" width="1" height="2"/>
        <rect x="2" y="14" fill="#FCD8A8" width="1" height="2"/>
        <rect x="1" y="15" fill="#FCD8A8" width="1" height="1"/>
        <rect x="9" y="15" fill="#FCD8A8" width="1" height="1"/>
        <rect x="15" y="15" width="1" height="1"/>
        <rect x="7" y="15" width="1" height="1"/>
        <rect x="15" width="1" height="1"/>
        <rect x="7" width="1" height="1"/>
        <rect x="13" y="15" fill="#0070EC" width="1" height="1"/>
        <rect x="11" y="15" fill="#80D010" width="1" height="1"/>
        <rect x="3" y="15" fill="#80D010" width="1" height="1"/>
        <rect x="5" y="15" fill="#0070EC" width="1" height="1"/>
        <rect x="13" fill="#0070EC" width="1" height="1"/>
        <rect x="5" fill="#0070EC" width="1" height="1"/>
        <rect x="3" y="13" fill="#FCD8A8" width="1" height="2"/>
        <rect x="4" y="12" fill="#FCD8A8" width="1" height="2"/>
        <rect x="5" y="11" fill="#FCD8A8" width="1" height="2"/>
    </g>
</svg>
