<?xml version="1.0" encoding="utf-8"?>
<!-- Generator: Adobe Illustrator 15.1.0, SVG Export Plug-In . SVG Version: 6.00 Build 0)  -->
<svg version="1.2" baseProfile="tiny" id="Layer_1" xmlns="http://www.w3.org/2000/svg" xmlns:xlink="http://www.w3.org/1999/xlink" viewBox="0 0 16 16" xml:space="preserve">
<g>
	<rect x="0" width="16" height="16"/>
	<rect fill="#D82800" width="4" height="2"/>
	<rect y="8" fill="#D82800" width="4" height="2"/>
	<rect x="2" y="4" fill="#D82800" width="6" height="1.9"/>
	<rect x="10" y="4" fill="#D82800" width="6" height="2"/>
	<rect x="2" y="4" fill="#D82800" width="6" height="2"/>
	<rect x="6" y="8" fill="#D82800" width="6" height="2"/>
	<rect x="2" y="12" fill="#D82800" width="6" height="2"/>
	<rect x="10" y="12" fill="#D82800" width="6" height="2"/>
	<rect x="6" fill="#D82800" width="6" height="2"/>
	<rect x="14" fill="#D82800" width="2" height="2"/>
	<rect x="14" y="8" fill="#D82800" width="2" height="2"/>
	<rect y="2" fill="#747474" width="4" height="1"/>
	<rect x="5" y="2" fill="#747474" width="7" height="1"/>
	<rect x="1" y="6" fill="#747474" width="7" height="1"/>
	<rect x="9" y="6" fill="#747474" width="7" height="1"/>
	<rect x="1" y="14" fill="#747474" width="7" height="1"/>
	<rect x="9" y="14" fill="#747474" width="7" height="1"/>
	<rect x="5" y="10" fill="#747474" width="7" height="1"/>
	<rect y="10" fill="#747474" width="4" height="1"/>
	<rect x="13" y="10" fill="#747474" width="3" height="1"/>
	<rect x="13" y="2" fill="#747474" width="3" height="1"/>
	<rect x="5" fill="#747474" width="1" height="2"/>
	<rect x="13" fill="#747474" width="1" height="2"/>
	<rect x="5" y="8" fill="#747474" width="1" height="2"/>
	<rect x="13" y="8" fill="#747474" width="1" height="2"/>
	<rect x="1" y="4" fill="#747474" width="1" height="2"/>
	<rect x="9" y="4" fill="#747474" width="1" height="2"/>
	<rect x="1" y="12" fill="#747474" width="1" height="2"/>
	<rect x="9" y="12" fill="#747474" width="1" height="2"/>
</g>
</svg>
