<?xml version="1.0" encoding="utf-8"?>
<!-- Generator: Adobe Illustrator 15.1.0, SVG Export Plug-In . SVG Version: 6.00 Build 0)  -->
<svg version="1.2" baseProfile="tiny" id="Layer_1" xmlns="http://www.w3.org/2000/svg" xmlns:xlink="http://www.w3.org/1999/xlink" viewBox="0 0 16 16" xml:space="preserve">
<g>
	<g>
		<path fill="#FFFFFF" d="M14,12h1v-1h-1v-1h-1h-1V9h-1h-1H9H8H7H6H5H4v1h1v1v1H4v-1v-1H3H2v1h1v1v1H2v-1v-1H1v1H0v1v1v1v1h1v-1h1
			v-1h1h1v-1h1h1h1h1h1h1h1h1v-1v-1h1v1v1h-1v1h1h1v-1V12z M7,11v1H6v-1v-1h1V11z M9,11v1H8v-1v-1h1V11z M11,11v1h-1v-1v-1h1V11z"/>
		<polygon fill="#FFFFFF" points="15,12 15,13 15,14 14,14 14,15 15,15 15,16 16,16 16,15 16,14 16,13 16,12 		"/>
	</g>
	<g>
		<rect x="14" y="15" width="1" height="1"/>
		<polygon points="12,14 12,15 13,15 14,15 14,14 13,14 		"/>
		<polygon points="11,13 10,13 9,13 8,13 7,13 6,13 5,13 4,13 4,14 5,14 6,14 7,14 8,14 9,14 10,14 11,14 12,14 12,13 		"/>
		<polygon points="2,14 2,15 3,15 4,15 4,14 3,14 		"/>
		<rect x="1" y="15" width="1" height="1"/>
		<rect y="11" width="1" height="1"/>
		<rect x="1" y="10" width="1" height="1"/>
		<polygon points="2,9 2,10 3,10 4,10 4,9 3,9 		"/>
		<polygon points="11,8 10,8 9,8 8,8 7,8 6,8 5,8 4,8 4,9 5,9 6,9 7,9 8,9 9,9 10,9 11,9 12,9 12,8 		"/>
		<polygon points="13,9 12,9 12,10 13,10 14,10 14,9 		"/>
		<rect x="14" y="10" width="1" height="1"/>
		<rect x="15" y="11" width="1" height="1"/>
		<polygon points="14,13 14,14 15,14 15,13 15,12 14,12 		"/>
		<polygon points="13,12 13,11 12,11 12,12 12,13 13,13 		"/>
		<polygon points="11,11 11,10 10,10 10,11 10,12 11,12 		"/>
		<polygon points="9,11 9,10 8,10 8,11 8,12 9,12 		"/>
		<polygon points="7,11 7,10 6,10 6,11 6,12 7,12 		"/>
		<polygon points="4,12 5,12 5,11 5,10 4,10 4,11 		"/>
		<polygon points="2,13 3,13 3,12 3,11 2,11 2,12 		"/>
	</g>
	<g>
		<polygon points="1,4 1,3 0,3 0,4 0,5 0,6 0,7 1,7 1,6 2,6 2,5 1,5 		"/>
		<path d="M15,3V2h-1v1v1h-1V3V2h1V1h-1h-1v1v1h-1V2V1h1V0h-1h-1H9H8H7H6H5H4v1H3H2v1H1v1h1v1v1h1h1V4H3V3V2h1v1v1h1h1h1h1h1h1h1h1
			v1h1h1v1h1v1h1V6V5V4V3H15z M6,2v1H5V2V1h1V2z M8,2v1H7V2V1h1V2z M10,2v1H9V2V1h1V2z"/>
	</g>
	<polygon fill="#0070EC" points="13,15 12,15 12,14 11,14 10,14 9,14 8,14 7,14 6,14 5,14 4,14 4,15 3,15 2,15 2,16 3,16 4,16 5,16 
		6,16 7,16 8,16 9,16 10,16 11,16 12,16 13,16 14,16 14,15 	"/>
	<g>
		<polygon fill="#0070EC" points="2,0 1,0 0,0 0,1 0,2 0,3 1,3 1,2 2,2 2,1 3,1 4,1 4,0 3,0 		"/>
		<polygon fill="#0070EC" points="1,5 2,5 2,4 2,3 1,3 1,4 		"/>
		<polygon fill="#0070EC" points="3,3 3,4 4,4 4,3 4,2 3,2 		"/>
		<polygon fill="#0070EC" points="5,2 5,3 6,3 6,2 6,1 5,1 		"/>
		<polygon fill="#0070EC" points="7,2 7,3 8,3 8,2 8,1 7,1 		"/>
		<polygon fill="#0070EC" points="9,2 9,3 10,3 10,2 10,1 9,1 		"/>
		<polygon fill="#0070EC" points="11,2 11,3 12,3 12,2 12,1 11,1 		"/>
		<polygon fill="#0070EC" points="15,0 14,0 13,0 12,0 12,1 13,1 14,1 14,2 15,2 15,3 16,3 16,2 16,1 16,0 		"/>
		<polygon fill="#0070EC" points="13,3 13,4 14,4 14,3 14,2 13,2 		"/>
	</g>
	<polygon fill="#BCBCBC" points="15,7 15,6 14,6 14,5 13,5 12,5 12,4 11,4 10,4 9,4 8,4 7,4 6,4 5,4 4,4 4,5 3,5 2,5 2,6 1,6 1,7 
		0,7 0,8 0,9 0,10 0,11 1,11 1,10 2,10 2,9 3,9 4,9 4,8 5,8 6,8 7,8 8,8 9,8 10,8 11,8 12,8 12,9 13,9 14,9 14,10 15,10 15,11 
		16,11 16,10 16,9 16,8 16,7 	"/>
</g>
</svg>
