<svg version="1.2" baseProfile="tiny" id="Layer_1" xmlns="http://www.w3.org/2000/svg" xmlns:xlink="http://www.w3.org/1999/xlink" viewBox="0 0 16 16" xml:space="preserve">
<g>
	<rect width="16" height="16"/>
	<polygon fill="#FFFFFF" points="10,1 10,0 9,0 8,0 8,3 9,3 9,2 10,2 11,2 11,1 	"/>
	<polygon fill="#FFFFFF" points="5,3 5,2 4,2 3,2 3,5 4,5 4,4 5,4 6,4 6,3 	"/>
	<polygon fill="#FFFFFF" points="15,3 15,2 14,2 13,2 13,5 14,5 14,4 15,4 16,4 16,3 	"/>
	<rect x="2" y="10" fill="#0070EC" width="2" height="2"/>
	<rect x="13" y="10" fill="#0070EC" width="2" height="2"/>
	<polygon fill="#FFFFFF" points="6,9 5,9 4,9 3,9 3,10 4,10 4,12 2,12 2,14 5,14 5,11 6,11 6,10 7,10 7,9 	"/>
	<rect x="2" y="6" fill="#BCBCBC" width="1" height="4"/>
	<path fill="#FFFFFF" d="M14,9h-1h-1h-1h-1v1h1v1h1v3h2h1h1V9H14z M15,12h-1h-1v-2h1h1V12z"/>
	<rect x="3" y="7" fill="#BCBCBC" width="1" height="1"/>
	<rect x="3" y="5" fill="#BCBCBC" width="2" height="1"/>
	<rect x="8" y="3" fill="#BCBCBC" width="2" height="1"/>
	<rect x="7" y="4" fill="#BCBCBC" width="1" height="2"/>
	<rect x="8" y="5" fill="#BCBCBC" width="1" height="1"/>
	<rect x="12" y="5" fill="#BCBCBC" width="1" height="2"/>
	<rect x="13" y="5" fill="#BCBCBC" width="1" height="1"/>
	<rect x="14" y="8" fill="#BCBCBC" width="1" height="1"/>
	<rect x="10" y="8" fill="#BCBCBC" width="2" height="1"/>
	<rect x="7" y="9" fill="#BCBCBC" width="3" height="1"/>
	<rect x="5" y="8" fill="#BCBCBC" width="2" height="1"/>
	<rect x="1" y="9" fill="#BCBCBC" width="1" height="5"/>
	<rect x="1" y="14" fill="#BCBCBC" width="4" height="1"/>
	<rect x="6" y="10" fill="#BCBCBC" width="1" height="1"/>
	<rect x="5" y="11" fill="#BCBCBC" width="1" height="4"/>
	<rect x="10" y="10" fill="#BCBCBC" width="1" height="1"/>
	<rect x="11" y="11" fill="#BCBCBC" width="1" height="4"/>
	<rect x="12" y="14" fill="#BCBCBC" width="4" height="1"/>
	<rect x="7" y="11" fill="#BCBCBC" width="3" height="4"/>
	<rect x="3" y="6" fill="#FFFFFF" width="2" height="1"/>
	<rect x="13" y="6" fill="#FFFFFF" width="2" height="1"/>
	<rect x="8" y="4" fill="#FFFFFF" width="2" height="1"/>
	<rect x="7" y="6" fill="#FFFFFF" width="2" height="1"/>
	<rect x="9" y="5" fill="#FFFFFF" width="1" height="2"/>
	<rect x="4" y="7" fill="#FFFFFF" width="11" height="1"/>
</g>
</svg>
