<svg version="1.2" baseProfile="tiny" id="Layer_1" xmlns="http://www.w3.org/2000/svg" xmlns:xlink="http://www.w3.org/1999/xlink" viewBox="0 0 16 16" xml:space="preserve">
<g>
	<g>
		<polygon points="14,6 14,5 14,4 13,4 12,4 12,3 11,3 10,3 9,3 8,3 7,3 6,3 5,3 5,4 4,4 3,4 3,5 3,6 2,6 2,5 2,4 1,4 1,5 1,6 0,6 
			0,16 16,16 16,6 		"/>
		<rect x="2" y="3" width="1" height="1"/>
	</g>
	<polygon fill="#80D010" points="0,0 0,2 0,3 0,4 0,5 0,6 1,6 1,5 1,4 2,4 2,3 3,3 4,3 5,3 5,2 12,2 12,3 13,3 14,3 14,4 15,4 15,5 
		15,6 16,6 16,5 16,4 16,3 16,2 16,0 	"/>
	<g>
		<polygon fill="#BCBCBC" points="12,14 11,14 10,14 9,14 8,14 7,14 6,14 5,14 4,14 3,14 3,15 4,15 5,15 6,15 7,15 8,15 9,15 10,15 
			11,15 12,15 13,15 14,15 14,14 13,14 		"/>
		<polygon fill="#BCBCBC" points="1,7 1,8 1,9 1,10 1,11 1,12 1,13 1,14 1,15 2,15 2,14 2,13 2,12 2,11 2,10 2,9 2,8 2,7 2,6 1,6 		
			"/>
		<polygon fill="#BCBCBC" points="2,5 2,6 3,6 3,5 3,4 2,4 		"/>
		<polygon fill="#BCBCBC" points="3,3 3,4 4,4 5,4 5,3 4,3 		"/>
		<polygon fill="#BCBCBC" points="11,2 10,2 9,2 8,2 7,2 6,2 5,2 5,3 6,3 7,3 8,3 9,3 10,3 11,3 12,3 12,2 		"/>
		<polygon fill="#BCBCBC" points="13,3 12,3 12,4 13,4 14,4 14,3 		"/>
		<polygon fill="#BCBCBC" points="15,4 14,4 14,5 14,6 15,6 15,5 		"/>
		<polygon fill="#BCBCBC" points="15,6 15,7.1 15,8.3 15,9.4 15,10.5 15,11.6 15,12.8 15,13.9 15,15 16,15 16,13.9 16,12.8 16,11.6 
			16,10.5 16,9.4 16,8.3 16,7.1 16,6 		"/>
	</g>
	<polygon fill="#747474" points="11,12 10,12 9,12 8,12 7,12 6,12 5,12 5,13 6,13 7,13 8,13 9,13 10,13 11,13 12,13 12,12 	"/>
</g>
</svg>
