<svg version="1.2" baseProfile="tiny" xmlns="http://www.w3.org/2000/svg" xmlns:xlink="http://www.w3.org/1999/xlink" viewBox="0 0 16 16" xml:space="preserve">
<rect fill="#0070EC" width="16" height="16"/>
<rect x="1" fill="#BCBCBC" width="1" height="1"/>
<rect x="2" fill="#BCBCBC" width="1" height="1"/>
<rect y="1" fill="#BCBCBC" width="1" height="1"/>
<rect y="2" fill="#BCBCBC" width="1" height="1"/>
<rect x="1" y="2" fill="#BCBCBC" width="1" height="1"/>
<rect x="2" y="2" fill="#BCBCBC" width="1" height="1"/>
<rect x="2" y="3" fill="#BCBCBC" width="1" height="1"/>
<rect x="3" y="3" fill="#BCBCBC" width="1" height="1"/>
<rect x="3" y="1" fill="#BCBCBC" width="1" height="1"/>
<rect x="4" y="2" fill="#BCBCBC" width="1" height="1"/>
<rect x="5" y="2" fill="#BCBCBC" width="1" height="1"/>
<rect x="4" y="4" fill="#BCBCBC" width="1" height="1"/>
<rect x="5" y="4" fill="#BCBCBC" width="1" height="1"/>
<rect x="6" y="4" fill="#BCBCBC" width="1" height="1"/>
<rect x="6" y="3" fill="#BCBCBC" width="1" height="1"/>
<rect x="7" y="3" fill="#BCBCBC" width="1" height="1"/>
<rect x="8" y="3" fill="#BCBCBC" width="1" height="1"/>
<rect x="8" y="2" fill="#BCBCBC" width="1" height="1"/>
<rect x="9" y="2" fill="#BCBCBC" width="1" height="1"/>
<rect x="7" y="1" fill="#BCBCBC" width="1" height="1"/>
<rect x="6" y="1" fill="#BCBCBC" width="1" height="1"/>
<rect x="6" fill="#BCBCBC" width="1" height="1"/>
<rect x="5" fill="#BCBCBC" width="1" height="1"/>
<rect x="4" fill="#BCBCBC" width="1" height="1"/>
<rect x="8" fill="#BCBCBC" width="1" height="1"/>
<rect x="9" fill="#BCBCBC" width="1" height="1"/>
<rect x="10" y="1" fill="#BCBCBC" width="1" height="1"/>
<rect x="11" y="1" fill="#BCBCBC" width="1" height="1"/>
<rect x="12" fill="#BCBCBC" width="1" height="1"/>
<rect x="13" fill="#BCBCBC" width="1" height="1"/>
<rect x="14" fill="#BCBCBC" width="1" height="1"/>
<rect x="15" y="1" fill="#BCBCBC" width="1" height="1"/>
<rect x="15" y="2" fill="#BCBCBC" width="1" height="1"/>
<rect x="14" y="2" fill="#BCBCBC" width="1" height="1"/>
<rect x="13" y="2" fill="#BCBCBC" width="1" height="1"/>
<rect x="12" y="2" fill="#BCBCBC" width="1" height="1"/>
<rect x="12" y="3" fill="#BCBCBC" width="1" height="1"/>
<rect x="11" y="3" fill="#BCBCBC" width="1" height="1"/>
<rect x="10" y="3" fill="#BCBCBC" width="1" height="1"/>
<rect x="9" y="2" fill="#BCBCBC" width="1" height="1"/>
<rect x="10" y="1" fill="#BCBCBC" width="1" height="1"/>
<rect x="11" y="1" fill="#BCBCBC" width="1" height="1"/>
<rect x="12" fill="#BCBCBC" width="1" height="1"/>
<rect x="15" y="13" fill="#FFFFFF" width="1" height="1"/>
<rect x="13" y="12" fill="#FFFFFF" width="1" height="1"/>
<rect x="12" y="12" fill="#FFFFFF" width="1" height="1"/>
<rect x="12" y="11" fill="#FFFFFF" width="1" height="1"/>
<rect x="11" y="11" fill="#FFFFFF" width="1" height="1"/>
<rect x="10" y="11" fill="#FFFFFF" width="1" height="1"/>
<rect x="10" y="12" fill="#FFFFFF" width="1" height="1"/>
<rect x="9" y="12" fill="#FFFFFF" width="1" height="1"/>
<rect x="5" y="14" fill="#FFFFFF" width="1" height="1"/>
<rect x="3" y="14" fill="#FFFFFF" width="1" height="1"/>
<rect x="4" y="13" fill="#FFFFFF" width="1" height="1"/>
<rect x="6" y="11" fill="#FFFFFF" width="1" height="1"/>
<rect x="4" y="10" fill="#FFFFFF" width="1" height="1"/>
<rect x="3" y="10" fill="#FFFFFF" width="1" height="1"/>
<rect x="3" y="9" fill="#FFFFFF" width="1" height="1"/>
<rect x="2" y="9" fill="#FFFFFF" width="1" height="1"/>
<rect x="1" y="10" fill="#FFFFFF" width="1" height="1"/>
<rect x="1" y="5" fill="#FFFFFF" width="1" height="1"/>
<rect x="6" y="6" fill="#FFFFFF" width="1" height="1"/>
<rect x="9" y="5" fill="#FFFFFF" width="1" height="1"/>
<rect x="13" y="6" fill="#FFFFFF" width="1" height="1"/>
<rect x="14" y="3" fill="#FFFFFF" width="1" height="1"/>
<rect x="15" fill="#FFFFFF" width="1" height="1"/>
<rect x="14" y="1" fill="#FFFFFF" width="1" height="1"/>
<rect x="13" y="1" fill="#FFFFFF" width="1" height="1"/>
<rect x="12" y="1" fill="#FFFFFF" width="1" height="1"/>
<rect x="11" fill="#FFFFFF" width="1" height="1"/>
<rect x="10" fill="#FFFFFF" width="1" height="1"/>
<rect x="10" y="2" fill="#FFFFFF" width="1" height="1"/>
<rect x="11" y="2" fill="#FFFFFF" width="1" height="1"/>
<rect x="9" y="1" fill="#FFFFFF" width="1" height="1"/>
<rect x="8" y="1" fill="#FFFFFF" width="1" height="1"/>
<rect x="7" fill="#FFFFFF" width="1" height="1"/>
<rect x="6" y="2" fill="#FFFFFF" width="1" height="1"/>
<rect x="7" y="2" fill="#FFFFFF" width="1" height="1"/>
<rect x="5" y="1" fill="#FFFFFF" width="1" height="1"/>
<rect x="4" y="1" fill="#FFFFFF" width="1" height="1"/>
<rect x="3" fill="#FFFFFF" width="1" height="1"/>
<rect x="2" y="1" fill="#FFFFFF" width="1" height="1"/>
<rect x="1" y="1" fill="#FFFFFF" width="1" height="1"/>
<rect fill="#FFFFFF" width="1" height="1"/>
<rect x="3" y="2" fill="#FFFFFF" width="1" height="1"/>
<rect x="4" y="3" fill="#FFFFFF" width="1" height="1"/>
<rect x="5" y="3" fill="#FFFFFF" width="1" height="1"/>
<rect x="5" y="3" fill="#FFFFFF" width="1" height="1"/>
</svg>
