<svg version="1.2" baseProfile="tiny" xmlns="http://www.w3.org/2000/svg" xmlns:xlink="http://www.w3.org/1999/xlink" viewBox="0 0 16 16">
<g>
	<rect fill="#FCD8A8" width="16" height="16"/>
	<g>
		<rect x="5" y="1" width="1" height="1"/>
		<rect y="2" width="1" height="1"/>
		<rect x="13" y="1" width="1" height="1"/>
		<rect x="11" y="3" width="1" height="1"/>
		<rect x="8" y="2" width="1" height="1"/>
		<rect x="3" y="3" width="1" height="1"/>
		<rect x="7" y="5" width="1" height="1"/>
		<rect x="15" y="5" width="1" height="1"/>
		<rect x="10" y="6" width="1" height="1"/>
		<rect x="2" y="6" width="1" height="1"/>
		<rect x="5" y="7" width="1" height="1"/>
		<rect x="13" y="7" width="1" height="1"/>
		<rect x="13" y="9" width="1" height="1"/>
		<rect x="8" y="10" width="1" height="1"/>
		<rect x="5" y="9" width="1" height="1"/>
		<rect y="10" width="1" height="1"/>
		<rect x="3" y="11" width="1" height="1"/>
		<rect x="11" y="11" width="1" height="1"/>
		<rect x="10" y="14" width="1" height="1"/>
		<rect x="15" y="13" width="1" height="1"/>
		<rect x="13" y="15" width="1" height="1"/>
		<rect x="7" y="13" width="1" height="1"/>
		<rect x="5" y="15" width="1" height="1"/>
		<rect x="2" y="14" width="1" height="1"/>
	</g>
</g>
</svg>
