<svg version="1.2" baseProfile="tiny" xmlns="http://www.w3.org/2000/svg" xmlns:xlink="http://www.w3.org/1999/xlink" viewBox="0 0 16 16">
<g>
	<rect x="0" width="16" height="16"/>
	<rect x="0" fill="#D82800" width="4" height="1"/>
	<rect x="6" fill="#D82800" width="6" height="1"/>
	<rect x="14" fill="#D82800" width="2" height="2"/>
	<rect x="2" y="8" fill="#D82800" width="2" height="3"/>
	<rect x="5" y="8" fill="#D82800" width="2" height="3"/>
	<rect x="9" y="8" fill="#D82800" width="2" height="3"/>
	<rect x="12" y="8" fill="#D82800" width="2" height="3"/>
	<rect fill="#D82800" width="2" height="2"/>
	<rect x="13" fill="#747474" width="1" height="1"/>
	<rect x="5" fill="#747474" width="1" height="1"/>
	<rect x="5" y="2.1" fill="#747474" width="1" height="1"/>
	<rect x="5" y="2" fill="#747474" width="1" height="1"/>
	<rect x="9" y="3" fill="#747474" width="2" height="3"/>
	<rect x="3" y="3" fill="#747474" width="4" height="2"/>
	<rect x="0" y="2" fill="#747474" width="1" height="1"/>
	<rect x="15" y="2" fill="#747474" width="1" height="1"/>
	<rect x="14" y="3" fill="#BCBCBC" width="1" height="2"/>
	<rect x="2" y="3" fill="#BCBCBC" width="1" height="2"/>
	<rect x="3" y="2" fill="#BCBCBC" width="2" height="1"/>
	<rect x="12" y="2" fill="#BCBCBC" width="2" height="1"/>
	<rect x="4" y="1" fill="#BCBCBC" width="9" height="1"/>
	<rect x="1" y="14" fill="#BCBCBC" width="15" height="1"/>
	<rect x="2" y="12" fill="#747474" width="5" height="2"/>
	<rect x="9" y="12" fill="#747474" width="5" height="2"/>
	<rect x="2" y="5" fill="#747474" width="5" height="3"/>
	<rect x="9" y="6" fill="#747474" width="5" height="2"/>
	<rect x="15" y="5" fill="#BCBCBC" width="1" height="9"/>
	<rect x="1" y="5" fill="#BCBCBC" width="1" height="9"/>
	<rect x="8" y="2" fill="#BCBCBC" width="1" height="12"/>
	<rect x="11" y="4" fill="#747474" width="2" height="2"/>
</g>
</svg>
