<svg version="1.2" baseProfile="tiny" xmlns="http://www.w3.org/2000/svg" xmlns:xlink="http://www.w3.org/1999/xlink" viewBox="0 0 16 16">
<g>
	<rect fill="#80D010" width="16" height="16"/>
	<g>
		<rect x="2" y="1" width="1" height="1"/>
		<rect x="1" y="4" width="1" height="1"/>
		<rect x="10" y="1" width="1" height="1"/>
		<rect x="13" width="1" height="1"/>
		<rect x="14" y="3" width="1" height="1"/>
		<rect x="15" y="9" width="1" height="1"/>
		<rect x="14" y="8" width="1" height="1"/>
		<rect x="13" y="7" width="1" height="1"/>
		<rect x="12" y="6" width="1" height="1"/>
		<rect x="11" y="5" width="1" height="1"/>
		<rect x="10" y="4" width="1" height="1"/>
		<polygon points="9,3 8,3 7,3 6,3 6,4 7,4 8,4 9,4 10,4 10,3 		"/>
		<rect x="5" y="4" width="1" height="1"/>
		<rect x="4" y="5" width="1" height="1"/>
		<rect x="3" y="6" width="1" height="1"/>
		<rect x="2" y="7" width="1" height="1"/>
		<rect x="1" y="8" width="1" height="1"/>
		<rect y="9" width="1" height="1"/>
		<rect x="1" y="10" width="1" height="1"/>
		<polygon points="1,12 1,11 0,11 0,12 0,13 1,13 2,13 2,14 3,14 4,14 5,14 5,13 6,13 6,12 6,11 5,11 5,12 4,12 4,13 3,13 3,12 
			3,11 2,11 2,12 		"/>
		<rect x="6" y="10" width="1" height="1"/>
		<polygon points="4,10 4,9 3,9 3,10 3,11 4,11 		"/>
		<rect x="4" y="8" width="1" height="1"/>
		<rect x="8" y="11" width="1" height="1"/>
		<polygon points="7,14 8,14 8,15 9,15 10,15 11,15 12,15 12,14 11,14 11,13 10,13 10,14 9,14 9,13 8,13 8,12 7,12 7,13 6,13 6,14 
					"/>
		<polygon points="12,14 13,14 14,14 15,14 15,13 14,13 13,13 13,12 12,12 12,11 11,11 11,10 10,10 10,11 10,12 11,12 11,13 12,13 
					"/>
		<rect x="9" y="9" width="1" height="1"/>
		<rect x="13" y="11" width="1" height="1"/>
		<rect x="15" y="12" width="1" height="1"/>
	</g>
	<g>
		<polygon fill="#FCD8A8" points="6,8 6,7 7,7 7,6 7,5 6,5 6,6 5,6 5,7 4,7 4,8 5,8 5,9 6,9 		"/>
		<rect x="3" y="8" fill="#FCD8A8" width="1" height="1"/>
		<polygon fill="#FCD8A8" points="4,10 4,11 5,11 5,10 5,9 4,9 		"/>
		<rect x="3" y="11" fill="#FCD8A8" width="1" height="1"/>
		<polygon fill="#FCD8A8" points="3,9 2,9 1,9 1,10 2,10 2,11 3,11 3,10 		"/>
		<rect y="10" fill="#FCD8A8" width="1" height="1"/>
		<rect x="1" y="11" fill="#FCD8A8" width="1" height="1"/>
		<rect x="11" y="13" fill="#FCD8A8" width="1" height="1"/>
		<polygon fill="#FCD8A8" points="10,12 10,11 10,10 9,10 9,9 8,9 8,8 7,8 7,9 7,10 7,11 6,11 6,12 6,13 7,13 7,12 8,12 8,11 9,11 
			9,12 8,12 8,13 9,13 9,14 10,14 10,13 11,13 11,12 		"/>
		<polygon fill="#FCD8A8" points="15,11 15,10 14,10 14,9 13,9 13,8 12,8 12,9 11,9 11,10 12,10 12,11 13,11 14,11 14,12 13,12 
			13,13 14,13 15,13 15,12 16,12 16,11 		"/>
		<polygon fill="#FCD8A8" points="11,7 11,6 10,6 10,7 10,8 11,8 12,8 12,7 		"/>
		<rect x="9" y="5" fill="#FCD8A8" width="1" height="1"/>
	</g>
</g>
</svg>
