<svg version="1.2" baseProfile="tiny"
	 xmlns="http://www.w3.org/2000/svg" xmlns:xlink="http://www.w3.org/1999/xlink" viewBox="0 0 16 16">
<rect width="16" height="16"/>
<rect y="1" fill="#D82800" width="16" height="2"/>
<rect x="13" y="1" fill="#BCBCBC" width="1" height="2"/>
<rect x="11" y="3" fill="#BCBCBC" width="1" height="2"/>
<rect x="5" y="3" fill="#BCBCBC" width="1" height="2"/>
<rect x="2" y="7" fill="#BCBCBC" width="1" height="7"/>
<rect x="4" y="7" fill="#BCBCBC" width="1" height="7"/>
<rect x="9" y="7" fill="#BCBCBC" width="1" height="7"/>
<polygon fill="#BCBCBC" points="7,7 6,7 6,8 7,8 7,10 8,10 8,7 "/>
<polygon fill="#BCBCBC" points="12,7 11,7 11,8 12,8 12,10 13,10 13,7 "/>
<polygon fill="#BCBCBC" points="12,13 13,13 13,12 12,12 12,10 11,10 11,13 "/>
<polygon fill="#BCBCBC" points="7,13 8,13 8,12 7,12 7,10 6,10 6,13 "/>
<rect x="14" y="7" fill="#BCBCBC" width="1" height="7"/>
<rect x="3" y="14" fill="#BCBCBC" width="11" height="1"/>
<rect x="3" y="6" fill="#BCBCBC" width="11" height="1"/>
<rect y="2" fill="#747474" width="1" height="1"/>
<rect x="2" y="2" fill="#747474" width="1" height="1"/>
<rect x="4" y="2" fill="#747474" width="1" height="1"/>
<rect x="1" y="5" fill="#747474" width="1" height="1"/>
<rect x="1" y="15" fill="#747474" width="1" height="1"/>
<rect y="6" fill="#747474" width="1" height="9"/>
<rect x="6" y="2" fill="#747474" width="1" height="1"/>
<rect x="8" y="2" fill="#747474" width="1" height="1"/>
<rect x="10" y="2" fill="#747474" width="1" height="1"/>
<rect x="12" y="2" fill="#747474" width="1" height="1"/>
<rect x="2" y="5" fill="#D82800" width="13" height="1"/>
<rect x="2" y="6" fill="#D82800" width="1" height="1"/>
<rect x="14" y="6" fill="#D82800" width="1" height="1"/>
<rect x="14" y="14" fill="#D82800" width="1" height="1"/>
<rect x="2" y="14" fill="#D82800" width="1" height="1"/>
<rect x="1" y="6" fill="#D82800" width="1" height="9"/>
<rect x="15" y="6" fill="#D82800" width="1" height="9"/>
<rect x="2" y="15" fill="#D82800" width="13" height="1"/>
<rect x="6" y="13" fill="#BCBCBC" width="2" height="1"/>
<rect x="11" y="13" fill="#BCBCBC" width="2" height="1"/>
</svg>
