<svg version="1.2" baseProfile="tiny"
	 xmlns="http://www.w3.org/2000/svg" xmlns:xlink="http://www.w3.org/1999/xlink" viewBox="0 0 16 16">
<rect width="16" height="16"/>
<rect x="13" y="15" fill="#00A800" width="2" height="1"/>
<rect x="10" y="14" fill="#00A800" width="2" height="1"/>
<rect x="5" y="15" fill="#00A800" width="2" height="1"/>
<rect x="2" y="14" fill="#00A800" width="2" height="1"/>
<rect x="1" y="11" fill="#00A800" width="2" height="1"/>
<rect x="9" y="11" fill="#00A800" width="2" height="1"/>
<rect x="8" y="9" fill="#00A800" width="2" height="1"/>
<rect y="9" fill="#00A800" width="2" height="1"/>
<rect x="5" y="7" fill="#00A800" width="2" height="1"/>
<rect x="13" y="7" fill="#00A800" width="2" height="1"/>
<rect x="10" y="6" fill="#00A800" width="2" height="1"/>
<rect x="2" y="6" fill="#00A800" width="2" height="1"/>
<rect x="1" y="3" fill="#00A800" width="2" height="1"/>
<rect x="9" y="3" fill="#00A800" width="2" height="1"/>
<rect x="8" y="1" fill="#00A800" width="2" height="1"/>
<rect y="1" fill="#00A800" width="2" height="1"/>
<rect x="3" fill="#80D010" width="2" height="1"/>
<rect x="11" fill="#80D010" width="2" height="1"/>
<rect x="14" y="2" fill="#80D010" width="2" height="1"/>
<rect x="6" y="2" fill="#80D010" width="2" height="1"/>
<rect x="4" y="4" fill="#80D010" width="2" height="1"/>
<rect x="12" y="4" fill="#80D010" width="2" height="1"/>
<rect x="7" y="5" fill="#80D010" width="2" height="1"/>
<rect x="3" y="8" fill="#80D010" width="2" height="1"/>
<rect x="11" y="8" fill="#80D010" width="2" height="1"/>
<rect x="14" y="10" fill="#80D010" width="2" height="1"/>
<rect x="12" y="12" fill="#80D010" width="2" height="1"/>
<rect x="7" y="13" fill="#80D010" width="2" height="1"/>
<rect x="4" y="12" fill="#80D010" width="2" height="1"/>
<rect x="6" y="10" fill="#80D010" width="2" height="1"/>
<rect y="5" fill="#80D010" width="1" height="1"/>
<rect y="13" fill="#80D010" width="1" height="1"/>
<rect x="15" y="13" fill="#80D010" width="1" height="1"/>
<rect x="15" y="5" fill="#80D010" width="1" height="1"/>
</svg>
