<svg version="1.2" baseProfile="tiny" id="Layer_1" xmlns="http://www.w3.org/2000/svg" xmlns:xlink="http://www.w3.org/1999/xlink" viewBox="0 0 16 16">
<g>
	<rect fill="#80D010" width="16" height="16"/>
	<g>
		<rect x="2" y="1" fill="#747474" width="1" height="1"/>
		<rect x="1" y="4" fill="#747474" width="1" height="1"/>
		<polygon fill="#747474" points="6,5 6,4 6,3 6,2 5,2 5,3 5,4 5,5 5,6 4,6 4,7 4,8 4,9 4,10 3,10 3,11 3,12 3,13 2,13 2,14 3,14 
			3,15 4,15 4,14 5,14 5,13 5,12 5,11 5,10 5,9 5,8 5,7 6,7 6,6 		"/>
		<rect x="6" fill="#747474" width="1" height="1"/>
		<rect x="7" y="4" fill="#747474" width="1" height="1"/>
		<rect x="7" y="6" fill="#747474" width="1" height="1"/>
		<rect x="6" y="7" fill="#747474" width="1" height="1"/>
		<polygon fill="#747474" points="9,7 8,7 8,8 8,9 7,9 7,10 7,11 7,12 8,12 8,13 8,14 9,14 9,15 10,15 10,16 11,16 12,16 12,15 
			11,15 11,14 10,14 10,13 10,12 11,12 11,11 10,11 10,10 9,10 9,9 10,9 10,8 10,7 10,6 9,6 		"/>
		<rect x="11" y="13" fill="#747474" width="1" height="1"/>
		<rect x="6" y="14" fill="#747474" width="1" height="1"/>
		<rect x="7" y="15" fill="#747474" width="1" height="1"/>
		<rect x="13" y="14" fill="#747474" width="1" height="1"/>
		<polygon fill="#747474" points="15,13 15,12 15,11 14,11 14,10 14,9 13,9 13,8 13,7 12,7 12,8 12,9 12,10 13,10 13,11 13,12 
			14,12 14,13 14,14 15,14 16,14 16,13 		"/>
		<rect x="11" y="6" fill="#747474" width="1" height="1"/>
		<rect x="14" y="3" fill="#747474" width="1" height="1"/>
		<rect x="13" fill="#747474" width="1" height="1"/>
		<rect x="10" y="1" fill="#747474" width="1" height="1"/>
		<polygon fill="#747474" points="11,4 10,4 10,5 10,6 11,6 11,5 		"/>
	</g>
	<g>
		<polygon points="15,9 15,10 15,11 15,12 16,12 16,11 16,10 16,9 		"/>
		<polygon points="15,7 14,7 14,8 14,9 15,9 15,8 		"/>
		<polygon points="14,5 13,5 13,6 13,7 14,7 14,6 		"/>
		<polygon points="13,3 12,3 12,4 12,5 13,5 13,4 		"/>
		<rect x="11" y="2" width="1" height="1"/>
		<rect x="10" y="3" width="1" height="1"/>
		<polygon points="9,5 8,5 8,6 8,7 9,7 9,6 10,6 10,5 10,4 9,4 		"/>
		<rect x="11" y="8" width="1" height="1"/>
		<polygon points="13,10 12,10 12,11 12,12 13,12 13,11 		"/>
		<polygon points="14,13 14,12 13,12 13,13 13,14 14,14 		"/>
		<rect x="14" y="14" width="1" height="1"/>
		<rect x="13" y="15" width="1" height="1"/>
		<rect x="12" y="14" width="1" height="1"/>
		<polygon points="9,14 8,14 8,15 8,16 9,16 10,16 10,15 9,15 		"/>
		<polygon points="6,11 6,12 5,12 5,13 5,14 4,14 4,15 3,15 3,14 2,14 2,13 3,13 3,12 3,11 3,10 4,10 4,9 4,8 4,7 4,6 5,6 5,5 5,4 
			5,3 5,2 6,2 6,1 6,0 5,0 5,1 4,1 4,2 4,3 4,4 3,4 3,5 3,6 3,7 2,7 2,8 2,9 2,10 1,10 1,11 1,12 0,12 0,13 0,14 1,14 1,15 2,15 
			2,16 3,16 4,16 5,16 6,16 7,16 7,15 6,15 6,14 6,13 7,13 7,12 7,11 7,10 6,10 		"/>
		<polygon points="8,3 8,2 8,1 7,1 7,2 7,3 7,4 8,4 		"/>
	</g>
	<g>
		<polygon fill="#BCBCBC" points="7,4 7,3 7,2 7,1 6,1 6,2 6,3 6,4 6,5 6,6 6,7 7,7 7,6 8,6 8,5 7,5 		"/>
		<polygon fill="#BCBCBC" points="6,8 6,7 5,7 5,8 5,9 5,10 5,11 5,12 6,12 6,11 6,10 7,10 7,9 8,9 8,8 8,7 7,7 7,8 		"/>
		<polygon fill="#BCBCBC" points="7,13 6,13 6,14 7,14 7,15 8,15 8,14 8,13 8,12 7,12 		"/>
		<rect x="12" y="15" fill="#BCBCBC" width="1" height="1"/>
		<rect x="11" y="14" fill="#BCBCBC" width="1" height="1"/>
		<polygon fill="#BCBCBC" points="11,6 10,6 10,7 10,8 10,9 9,9 9,10 10,10 10,11 11,11 11,12 10,12 10,13 10,14 11,14 11,13 12,13 
			12,14 13,14 13,13 13,12 12,12 12,11 12,10 12,9 11,9 11,8 12,8 12,7 11,7 		"/>
		<polygon fill="#BCBCBC" points="13,5 12,5 12,4 12,3 11,3 11,4 11,5 11,6 12,6 12,7 13,7 13,6 		"/>
		<polygon fill="#BCBCBC" points="14,7 13,7 13,8 13,9 14,9 14,8 		"/>
		<polygon fill="#BCBCBC" points="14,11 15,11 15,10 15,9 14,9 14,10 		"/>
		<rect x="15" y="12" fill="#BCBCBC" width="1" height="1"/>
	</g>
</g>
</svg>
