<svg version="1.2" baseProfile="tiny" xmlns="http://www.w3.org/2000/svg" xmlns:xlink="http://www.w3.org/1999/xlink" viewBox="0 0 16 16">
<g>
	<rect width="16" height="16"/>
	<g>
		<polygon fill="#D82800" points="4,0 3,0 2,0 1,0 0,0 0,1 0,2 1,2 2,2 3,2 3,1 4,1 		"/>
		<rect x="6" y="1" fill="#D82800" width="1" height="1"/>
		<rect x="9" y="1" fill="#D82800" width="1" height="1"/>
		<polygon fill="#D82800" points="15,0 14,0 14,1 14,2 15,2 16,2 16,1 16,0 		"/>
		<polygon fill="#D82800" points="11,3 10,3 9,3 8,3 7,3 6,3 5,3 5,2 4,2 4,3 4,4 4,5 4,6 4,7 4,8 5,8 5,7 5,6 5,5 6,5 6,6 7,6 7,5 
			8,5 9,5 9,6 10,6 10,5 11,5 11,6 11,7 11,8 12,8 12,7 12,6 12,5 12,4 12,3 12,2 11,2 		"/>
		<polygon fill="#D82800" points="2,5 2,6 3,6 3,5 3,4 2,4 		"/>
		<polygon fill="#D82800" points="0,8 0,9 0,10 1,10 2,10 2,9 2,8 1,8 		"/>
		<polygon fill="#D82800" points="5,11 5,12 6,12 7,12 7,11 6,11 		"/>
		<polygon fill="#D82800" points="9,11 9,12 10,12 11,12 11,11 10,11 		"/>
		<polygon fill="#D82800" points="15,13 15,14 16,14 16,13 16,12 15,12 		"/>
		<polygon fill="#D82800" points="14,8 14,9 14,10 15,10 16,10 16,9 16,8 15,8 		"/>
		<polygon fill="#D82800" points="14,4 13,4 13,5 13,6 14,6 15,6 16,6 16,5 16,4 15,4 		"/>
	</g>
	<g>
		<polygon fill="#BCBCBC" points="7,3 8,3 9,3 10,3 11,3 11,2 11,1 10,1 10,2 9,2 9,1 9,0 8,0 7,0 7,1 7,2 6,2 6,1 5,1 5,2 5,3 6,3 
					"/>
		<polygon fill="#BCBCBC" points="8,8 9,8 10,8 10,7 11,7 11,6 11,5 10,5 10,6 9,6 9,5 8,5 7,5 7,6 6,6 6,5 5,5 5,6 5,7 6,7 6,8 
			7,8 		"/>
		<polygon fill="#BCBCBC" points="5,10 6,10 6,11 7,11 8,11 9,11 10,11 10,10 11,10 11,9 12,9 12,8 11,8 10,8 10,9 9,9 8,9 7,9 6,9 
			6,8 5,8 4,8 4,9 5,9 		"/>
		<polygon fill="#BCBCBC" points="11,10 11,11 12,11 12,12 13,12 13,11 13,10 13,9 12,9 12,10 		"/>
		<polygon fill="#BCBCBC" points="13,14 13,13 12,13 12,12 11,12 10,12 9,12 8,12 7,12 6,12 5,12 4,12 4,13 3,13 3,14 2,14 2,15 
			2,16 3,16 4,16 5,16 6,16 7,16 8,16 9,16 10,16 11,16 12,16 13,16 14,16 14,15 14,14 		"/>
		<polygon fill="#BCBCBC" points="5,11 5,10 4,10 4,9 3,9 3,10 3,11 3,12 4,12 4,11 		"/>
	</g>
	<g>
		<polygon fill="#747474" points="15,2 14,2 14,1 14,0 13,0 13,1 13,2 13,3 14,3 15,3 16,3 16,2 		"/>
		<polygon fill="#747474" points="14,6 13,6 13,7 14,7 15,7 16,7 16,6 15,6 		"/>
		<polygon fill="#747474" points="14,10 14,11 15,11 16,11 16,10 15,10 		"/>
		<rect x="15" y="14" fill="#747474" width="1" height="1"/>
		<rect x="13" y="13" fill="#747474" width="1" height="1"/>
		<rect x="12" y="12" fill="#747474" width="1" height="1"/>
		<rect x="11" y="11" fill="#747474" width="1" height="1"/>
		<rect x="10" y="10" fill="#747474" width="1" height="1"/>
		<rect x="11" y="9" fill="#747474" width="1" height="1"/>
		<rect x="10" y="7" fill="#747474" width="1" height="1"/>
		<polygon fill="#747474" points="10,8 9,8 8,8 7,8 6,8 6,9 7,9 8,9 9,9 10,9 		"/>
		<rect x="5" y="7" fill="#747474" width="1" height="1"/>
		<rect x="4" y="9" fill="#747474" width="1" height="1"/>
		<rect x="5" y="10" fill="#747474" width="1" height="1"/>
		<polygon fill="#747474" points="7,11 7,12 8,12 9,12 9,11 8,11 		"/>
		<rect x="4" y="11" fill="#747474" width="1" height="1"/>
		<rect x="3" y="12" fill="#747474" width="1" height="1"/>
		<rect x="2" y="13" fill="#747474" width="1" height="1"/>
		<polygon fill="#747474" points="2,10 1,10 0,10 0,11 1,11 2,11 		"/>
		<polygon fill="#747474" points="2,4 1,4 1,5 1,6 1,7 2,7 3,7 3,6 2,6 2,5 		"/>
		<polygon fill="#747474" points="2,3 3,3 3,2 2,2 1,2 0,2 0,3 1,3 		"/>
	</g>
</g>
</svg>
