<svg version="1.2" baseProfile="tiny"
	 xmlns="http://www.w3.org/2000/svg" xmlns:xlink="http://www.w3.org/1999/xlink" viewBox="0 0 16 16">
<rect y="14" width="16" height="2"/>
<rect y="6" width="16" height="2"/>
<rect fill="#BCBCBC" width="16" height="6"/>
<rect y="8" fill="#BCBCBC" width="16" height="6"/>
<polygon fill="#747474" points="1,2 1,1 0,1 0,8 1,8 1,7 2,7 2,2 "/>
<polygon fill="#747474" points="15,2 15,1 16,1 16,8 15,8 15,7 14,7 14,2 "/>
<polygon fill="#747474" points="10,2 9,2 9,1 7,1 7,2 6,2 6,7 7,7 7,8 9,8 9,7 10,7 "/>
<polygon fill="#747474" points="1,10 1,9 0,9 0,16 1,16 1,15 2,15 2,10 "/>
<polygon fill="#747474" points="15,10 15,9 16,9 16,16 15,16 15,15 14,15 14,10 "/>
<polygon fill="#747474" points="10,10 9,10 9,9 7,9 7,10 6,10 6,15 7,15 7,16 9,16 9,15 10,15 "/>
</svg>
