<svg version="1.2" baseProfile="tiny"
	 xmlns="http://www.w3.org/2000/svg" xmlns:xlink="http://www.w3.org/1999/xlink" viewBox="0 0 16 16">
<rect width="16" height="16"/>
<polygon fill="#D82800" points="9,4 7,4 7,5 6,5 6,6 5,6 4,6 4,7 3,7 3,10 5,10 5,9 6,9 6,8 7,8 7,7 8,7 8,6 9,6 "/>
<polygon fill="#D82800" points="3,13 3,12 2,12 2,13 1,13 1,14 0,14 0,16 2,16 2,15 3,15 3,14 4,14 4,13 "/>
<polygon fill="#D82800" points="11,7 11,8 10,8 10,10 11,10 12,10 12,11 13,11 13,10 13,7 "/>
<polygon fill="#BCBCBC" points="12,2 12,3 11,3 11,4 10,4 10,5 9,5 9,6 8,6 8,7 7,7 7,8 6,8 6,9 5,9 5,10 4,10 4,12 6,12 6,11 7,11 
	7,10 8,10 8,9 9,9 9,8 10,8 10,7 11,7 11,6 12,6 12,5 13,5 13,4 14,4 14,2 "/>
<polygon fill="#747474" points="11,3 10,3 10,2 9,2 6,2 6,3 5,3 3,3 3,4 3,7 4,7 4,6 6,6 6,5 7,5 7,4 9,4 9,5 10,5 10,4 11,4 "/>
<rect x="11" y="1" fill="#747474" width="2" height="1"/>
<rect x="14" y="3" fill="#747474" width="1" height="9"/>
<rect x="12" y="6" fill="#747474" width="1" height="1"/>
<rect x="13" y="12" fill="#747474" width="1" height="1"/>
<rect x="12" y="13" fill="#747474" width="1" height="1"/>
<rect x="10" y="14" fill="#747474" width="2" height="1"/>
<polygon fill="#747474" points="12,11 12,10 10,10 10,9 9,9 9,10 8,10 8,11 7,11 7,12 6,12 6,14 10,14 10,13 12,13 12,12 13,12 
	13,11 "/>
<rect x="4" y="12" fill="#747474" width="1" height="1"/>
<rect x="3" y="11" fill="#747474" width="1" height="1"/>
<rect x="6" fill="#BCBCBC" width="4" height="1"/>
<rect x="6" y="15" fill="#BCBCBC" width="4" height="1"/>
<rect x="3" y="1" fill="#BCBCBC" width="3" height="1"/>
<rect x="2" y="2" fill="#BCBCBC" width="1" height="1"/>
<polygon fill="#BCBCBC" points="2,10 1,10 1,11 2,11 2,12 3,12 3,10 "/>
<polygon fill="#BCBCBC" points="5,13 4,13 4,14 5,14 5,15 6,15 6,13 "/>
<rect x="3" y="12" fill="#BCBCBC" width="1" height="1"/>
<rect x="10" y="1" fill="#BCBCBC" width="1" height="1"/>
<rect x="14" y="1" fill="#BCBCBC" width="1" height="1"/>
<rect x="1" y="3" fill="#BCBCBC" width="1" height="6"/>
</svg>
